<?xml version="1.0" encoding="utf-8"?>
<svg xmlns="http://www.w3.org/2000/svg" viewBox="34.636 34.7985 430.7271 430.4025" width="430.727px" height="430.402px" preserveAspectRatio="none"><path d="M 249.838 465.201 C 415.5 465.201 519.042 285.864 436.211 142.398 C 353.38 -1.068 146.3 -1.068 63.469 142.398 C 44.583 175.113 34.636 212.222 34.636 249.999 C 34.782 368.794 131.046 465.059 249.838 465.201 Z M 165.694 243.93 L 231.761 176.83 C 236.969 171.579 242.22 166.371 247.255 160.991 C 249.235 158.882 250.483 158.969 252.463 160.991 C 267.73 176.658 283.065 192.252 298.473 207.776 L 335.445 245.264 C 335.918 245.695 335.918 245.953 336.65 246.814 C 334.799 246.814 333.508 247.072 332.346 247.072 C 316.938 247.072 301.486 247.072 286.078 247.072 C 282.764 247.072 282.161 248.234 282.161 251.376 C 282.161 279.481 282.161 307.587 282.161 335.692 C 282.161 340.427 282.161 340.427 277.857 340.427 L 221.905 340.427 C 217.6 340.427 217.6 340.427 217.6 336.123 C 217.6 308.116 217.6 280.127 217.6 252.151 C 217.6 247.287 217.6 247.287 213.038 247.287 L 167.458 247.287 C 166.253 247.287 165.048 247.287 163.154 247.072 C 164.23 245.695 164.919 244.705 165.694 243.93 Z" style="" id="object-0"/></svg>